STARTFONT 2.1
FONT -Adobe-Times-Bold-R-Normal--14-100-100-100-P-76-ISO8859-2
SIZE 10 100 100
FONTBOUNDINGBOX 15 17 -1 -3
COMMENT $XConsortium: timB10.bdf,v 1.7 95/01/26 17:58:03 gildea Exp $
COMMENT 
COMMENT +
COMMENT  Copyright 1984-1989, 1994 Adobe Systems Incorporated.
COMMENT  Copyright 1988, 1994 Digital Equipment Corporation.
COMMENT
COMMENT  Adobe is a trademark of Adobe Systems Incorporated which may be
COMMENT  registered in certain jurisdictions.
COMMENT  Permission to use these trademarks is hereby granted only in
COMMENT  association with the images described in this file.
COMMENT
COMMENT  Permission to use, copy, modify, distribute and sell this software
COMMENT  and its documentation for any purpose and without fee is hereby
COMMENT  granted, provided that the above copyright notices appear in all
COMMENT  copies and that both those copyright notices and this permission
COMMENT  notice appear in supporting documentation, and that the names of
COMMENT  Adobe Systems and Digital Equipment Corporation not be used in
COMMENT  advertising or publicity pertaining to distribution of the software
COMMENT  without specific, written prior permission.  Adobe Systems and
COMMENT  Digital Equipment Corporation make no representations about the
COMMENT  suitability of this software for any purpose.  It is provided "as
COMMENT  is" without express or implied warranty.
COMMENT -
COMMENT  
COMMENT  Translation to ISO8859-2 by Cub Soft;  Petr.Kolar@vslib.cz
COMMENT  
STARTPROPERTIES 28
FOUNDRY "Adobe"
FAMILY_NAME "Times"
WEIGHT_NAME "Bold"
SLANT "R"
SETWIDTH_NAME "Normal"
ADD_STYLE_NAME ""
PIXEL_SIZE 14
POINT_SIZE 100
RESOLUTION_X 100
RESOLUTION_Y 100
SPACING "P"
AVERAGE_WIDTH 76
CHARSET_REGISTRY "ISO8859"
CHARSET_ENCODING "2"
CAP_HEIGHT 10
X_HEIGHT 7
FONT_ASCENT 12
FONT_DESCENT 3
FACE_NAME "Times Bold"

STARTCHAR space
ENCODING 32
SWIDTH 250 0
DWIDTH 3 0
BBX 1 1 0 0
BITMAP
00
ENDCHAR
STARTCHAR exclam
ENCODING 33
SWIDTH 333 0
DWIDTH 4 0
BBX 2 10 1 0
BITMAP
c0
c0
c0
c0
c0
c0
c0
00
c0
c0
ENDCHAR
STARTCHAR quotedbl
ENCODING 34
SWIDTH 555 0
DWIDTH 7 0
BBX 5 4 1 6
BITMAP
d8
d8
d8
48
ENDCHAR
STARTCHAR numbersign
ENCODING 35
SWIDTH 500 0
DWIDTH 7 0
BBX 7 10 -1 0
BITMAP
14
14
14
7e
28
28
fc
50
50
50
ENDCHAR
STARTCHAR dollar
ENCODING 36
SWIDTH 500 0
DWIDTH 7 0
BBX 6 12 0 -1
BITMAP
10
78
d4
d4
f0
78
3c
1c
94
d4
78
10
ENDCHAR
STARTCHAR percent
ENCODING 37
SWIDTH 1000 0
DWIDTH 14 0
BBX 13 10 0 0
BITMAP
38c0
67c0
c580
c900
7300
0670
04c8
0d88
1990
18e0
ENDCHAR
STARTCHAR ampersand
ENCODING 38
SWIDTH 833 0
DWIDTH 12 0
BBX 10 10 1 0
BITMAP
3c00
6600
6600
3c00
39c0
6c80
cd80
c700
ef80
7b00
ENDCHAR
STARTCHAR apostrophe
ENCODING 39
SWIDTH 333 0
DWIDTH 4 0
BBX 2 4 1 6
BITMAP
c0
c0
40
80
ENDCHAR
STARTCHAR parenleft
ENCODING 40
SWIDTH 333 0
DWIDTH 5 0
BBX 3 13 1 -3
BITMAP
20
60
40
c0
c0
c0
c0
c0
c0
c0
40
60
20
ENDCHAR
STARTCHAR parenright
ENCODING 41
SWIDTH 333 0
DWIDTH 5 0
BBX 3 13 0 -3
BITMAP
80
c0
40
60
60
60
60
60
60
60
40
c0
80
ENDCHAR
STARTCHAR asterisk
ENCODING 42
SWIDTH 500 0
DWIDTH 7 0
BBX 5 6 1 4
BITMAP
20
a8
70
70
a8
20
ENDCHAR
STARTCHAR plus
ENCODING 43
SWIDTH 570 0
DWIDTH 8 0
BBX 7 7 0 0
BITMAP
10
10
10
fe
10
10
10
ENDCHAR
STARTCHAR comma
ENCODING 44
SWIDTH 250 0
DWIDTH 3 0
BBX 2 4 0 -2
BITMAP
c0
c0
40
80
ENDCHAR
STARTCHAR minus
ENCODING 45
SWIDTH 570 0
DWIDTH 9 0
BBX 6 1 1 3
BITMAP
fc
ENDCHAR
STARTCHAR period
ENCODING 46
SWIDTH 250 0
DWIDTH 3 0
BBX 2 2 0 0
BITMAP
c0
c0
ENDCHAR
STARTCHAR slash
ENCODING 47
SWIDTH 278 0
DWIDTH 4 0
BBX 4 10 0 0
BITMAP
10
10
30
20
60
40
40
c0
80
80
ENDCHAR
STARTCHAR zero
ENCODING 48
SWIDTH 500 0
DWIDTH 7 0
BBX 6 10 0 0
BITMAP
78
48
cc
cc
cc
cc
cc
cc
48
78
ENDCHAR
STARTCHAR one
ENCODING 49
SWIDTH 500 0
DWIDTH 7 0
BBX 6 10 0 0
BITMAP
30
f0
30
30
30
30
30
30
30
fc
ENDCHAR
STARTCHAR two
ENCODING 50
SWIDTH 500 0
DWIDTH 7 0
BBX 6 10 0 0
BITMAP
38
7c
8c
0c
0c
18
30
40
fc
fc
ENDCHAR
STARTCHAR three
ENCODING 51
SWIDTH 500 0
DWIDTH 7 0
BBX 6 10 0 0
BITMAP
38
7c
8c
0c
38
1c
0c
c4
ec
78
ENDCHAR
STARTCHAR four
ENCODING 52
SWIDTH 500 0
DWIDTH 7 0
BBX 6 10 0 0
BITMAP
18
38
38
58
98
98
fc
fc
18
18
ENDCHAR
STARTCHAR five
ENCODING 53
SWIDTH 500 0
DWIDTH 7 0
BBX 6 10 0 0
BITMAP
7c
7c
40
78
7c
0c
04
c4
cc
78
ENDCHAR
STARTCHAR six
ENCODING 54
SWIDTH 500 0
DWIDTH 7 0
BBX 6 10 0 0
BITMAP
1c
30
60
e0
f8
cc
cc
cc
cc
78
ENDCHAR
STARTCHAR seven
ENCODING 55
SWIDTH 500 0
DWIDTH 7 0
BBX 6 10 0 0
BITMAP
fc
fc
8c
08
18
10
10
20
20
60
ENDCHAR
STARTCHAR eight
ENCODING 56
SWIDTH 500 0
DWIDTH 7 0
BBX 6 10 0 0
BITMAP
78
cc
cc
ec
78
78
cc
cc
cc
78
ENDCHAR
STARTCHAR nine
ENCODING 57
SWIDTH 500 0
DWIDTH 7 0
BBX 6 10 0 0
BITMAP
78
cc
cc
cc
cc
7c
18
38
70
c0
ENDCHAR
STARTCHAR colon
ENCODING 58
SWIDTH 333 0
DWIDTH 4 0
BBX 2 7 1 0
BITMAP
c0
c0
00
00
00
c0
c0
ENDCHAR
STARTCHAR semicolon
ENCODING 59
SWIDTH 333 0
DWIDTH 4 0
BBX 2 9 1 -2
BITMAP
c0
c0
00
00
00
c0
c0
40
80
ENDCHAR
STARTCHAR less
ENCODING 60
SWIDTH 570 0
DWIDTH 8 0
BBX 7 7 0 0
BITMAP
06
1c
70
c0
70
1c
06
ENDCHAR
STARTCHAR equal
ENCODING 61
SWIDTH 570 0
DWIDTH 8 0
BBX 7 3 0 2
BITMAP
fe
00
fe
ENDCHAR
STARTCHAR greater
ENCODING 62
SWIDTH 570 0
DWIDTH 8 0
BBX 7 7 0 0
BITMAP
c0
70
1c
06
1c
70
c0
ENDCHAR
STARTCHAR question
ENCODING 63
SWIDTH 500 0
DWIDTH 7 0
BBX 5 10 1 0
BITMAP
70
d8
d8
18
30
60
60
00
60
60
ENDCHAR
STARTCHAR at
ENCODING 64
SWIDTH 930 0
DWIDTH 14 0
BBX 11 12 1 -2
BITMAP
0f80
38c0
6060
4520
8f20
9b20
9b20
9f60
8dc0
4000
6000
1f80
ENDCHAR
STARTCHAR A
ENCODING 65
SWIDTH 722 0
DWIDTH 10 0
BBX 10 10 0 0
BITMAP
0c00
0c00
1e00
1600
3300
2300
3f00
6180
4180
e3c0
ENDCHAR
STARTCHAR B
ENCODING 66
SWIDTH 667 0
DWIDTH 9 0
BBX 8 10 0 0
BITMAP
fe
63
63
63
7e
63
63
63
63
fe
ENDCHAR
STARTCHAR C
ENCODING 67
SWIDTH 722 0
DWIDTH 10 0
BBX 8 10 1 0
BITMAP
3d
63
c1
c1
c0
c0
c0
c1
63
3e
ENDCHAR
STARTCHAR D
ENCODING 68
SWIDTH 722 0
DWIDTH 10 0
BBX 9 10 0 0
BITMAP
fe00
6300
6180
6180
6180
6180
6180
6180
6300
fe00
ENDCHAR
STARTCHAR E
ENCODING 69
SWIDTH 667 0
DWIDTH 9 0
BBX 8 10 0 0
BITMAP
ff
63
61
64
7c
64
60
61
63
ff
ENDCHAR
STARTCHAR F
ENCODING 70
SWIDTH 611 0
DWIDTH 8 0
BBX 8 10 0 0
BITMAP
ff
63
61
64
7c
64
64
60
60
f0
ENDCHAR
STARTCHAR G
ENCODING 71
SWIDTH 778 0
DWIDTH 11 0
BBX 9 10 1 0
BITMAP
3d00
6300
c100
c100
c000
c780
c300
c300
6300
3e00
ENDCHAR
STARTCHAR H
ENCODING 72
SWIDTH 778 0
DWIDTH 11 0
BBX 10 10 0 0
BITMAP
f3c0
6180
6180
6180
7f80
6180
6180
6180
6180
f3c0
ENDCHAR
STARTCHAR I
ENCODING 73
SWIDTH 389 0
DWIDTH 5 0
BBX 4 10 0 0
BITMAP
f0
60
60
60
60
60
60
60
60
f0
ENDCHAR
STARTCHAR J
ENCODING 74
SWIDTH 500 0
DWIDTH 7 0
BBX 6 11 0 -1
BITMAP
3c
18
18
18
18
18
18
18
d8
d8
70
ENDCHAR
STARTCHAR K
ENCODING 75
SWIDTH 778 0
DWIDTH 11 0
BBX 10 10 1 0
BITMAP
f7c0
6300
6200
6400
7800
7c00
6e00
6700
6380
f7c0
ENDCHAR
STARTCHAR L
ENCODING 76
SWIDTH 667 0
DWIDTH 9 0
BBX 8 10 0 0
BITMAP
f0
60
60
60
60
60
61
61
63
ff
ENDCHAR
STARTCHAR M
ENCODING 77
SWIDTH 944 0
DWIDTH 13 0
BBX 12 10 0 0
BITMAP
f0f0
70e0
70e0
5960
5960
5a60
4e60
4e60
4460
e4f0
ENDCHAR
STARTCHAR N
ENCODING 78
SWIDTH 722 0
DWIDTH 10 0
BBX 10 10 0 0
BITMAP
e1c0
7080
7080
5880
4c80
4c80
4680
4380
4380
e180
ENDCHAR
STARTCHAR O
ENCODING 79
SWIDTH 778 0
DWIDTH 11 0
BBX 9 10 1 0
BITMAP
3e00
6300
c180
c180
c180
c180
c180
c180
6300
3e00
ENDCHAR
STARTCHAR P
ENCODING 80
SWIDTH 611 0
DWIDTH 9 0
BBX 8 10 0 0
BITMAP
fe
67
63
63
63
7e
60
60
60
f0
ENDCHAR
STARTCHAR Q
ENCODING 81
SWIDTH 778 0
DWIDTH 11 0
BBX 9 13 1 -3
BITMAP
3e00
6300
c180
c180
c180
c180
c180
c180
6300
3e00
1c00
0e00
0380
ENDCHAR
STARTCHAR R
ENCODING 82
SWIDTH 722 0
DWIDTH 10 0
BBX 10 10 0 0
BITMAP
fe00
6700
6300
6300
6600
7c00
6e00
6700
6380
f1c0
ENDCHAR
STARTCHAR S
ENCODING 83
SWIDTH 556 0
DWIDTH 8 0
BBX 7 10 0 0
BITMAP
7a
c6
c2
e0
78
1c
0e
86
c6
fc
ENDCHAR
STARTCHAR T
ENCODING 84
SWIDTH 667 0
DWIDTH 9 0
BBX 8 10 0 0
BITMAP
ff
db
99
18
18
18
18
18
18
3c
ENDCHAR
STARTCHAR U
ENCODING 85
SWIDTH 722 0
DWIDTH 10 0
BBX 9 10 0 0
BITMAP
f380
6100
6100
6100
6100
6100
6100
6100
7300
3e00
ENDCHAR
STARTCHAR V
ENCODING 86
SWIDTH 722 0
DWIDTH 10 0
BBX 10 10 0 0
BITMAP
f1c0
6080
6180
3100
3300
3200
1a00
1e00
0c00
0c00
ENDCHAR
STARTCHAR W
ENCODING 87
SWIDTH 1000 0
DWIDTH 14 0
BBX 15 10 -1 0
BITMAP
f79e
630c
6308
3188
3190
3390
1ad0
1ce0
0c60
0c60
ENDCHAR
STARTCHAR X
ENCODING 88
SWIDTH 722 0
DWIDTH 10 0
BBX 11 10 0 0
BITMAP
f1c0
7080
3900
1e00
0c00
0e00
1700
2380
41c0
e3e0
ENDCHAR
STARTCHAR Y
ENCODING 89
SWIDTH 722 0
DWIDTH 10 0
BBX 10 10 0 0
BITMAP
f9c0
7080
3100
3900
1a00
1e00
0c00
0c00
0c00
1e00
ENDCHAR
STARTCHAR Z
ENCODING 90
SWIDTH 667 0
DWIDTH 9 0
BBX 8 10 0 0
BITMAP
ff
c7
86
8c
18
18
31
61
e3
ff
ENDCHAR
STARTCHAR bracketleft
ENCODING 91
SWIDTH 333 0
DWIDTH 5 0
BBX 4 13 0 -3
BITMAP
f0
c0
c0
c0
c0
c0
c0
c0
c0
c0
c0
c0
f0
ENDCHAR
STARTCHAR backslash
ENCODING 92
SWIDTH 278 0
DWIDTH 4 0
BBX 4 10 0 0
BITMAP
80
80
c0
40
60
20
20
30
10
10
ENDCHAR
STARTCHAR bracketright
ENCODING 93
SWIDTH 333 0
DWIDTH 5 0
BBX 4 13 0 -3
BITMAP
f0
30
30
30
30
30
30
30
30
30
30
30
f0
ENDCHAR
STARTCHAR asciicircum
ENCODING 94
SWIDTH 581 0
DWIDTH 8 0
BBX 5 5 1 5
BITMAP
20
70
50
d8
88
ENDCHAR
STARTCHAR underscore
ENCODING 95
SWIDTH 500 0
DWIDTH 7 0
BBX 7 1 0 -3
BITMAP
fe
ENDCHAR
STARTCHAR grave
ENCODING 96
SWIDTH 333 0
DWIDTH 5 0
BBX 3 3 1 8
BITMAP
80
c0
20
ENDCHAR
STARTCHAR a
ENCODING 97
SWIDTH 500 0
DWIDTH 7 0
BBX 7 7 0 0
BITMAP
78
cc
0c
7c
cc
cc
76
ENDCHAR
STARTCHAR b
ENCODING 98
SWIDTH 556 0
DWIDTH 8 0
BBX 7 10 0 0
BITMAP
e0
60
60
7c
66
66
66
66
66
5c
ENDCHAR
STARTCHAR c
ENCODING 99
SWIDTH 444 0
DWIDTH 6 0
BBX 5 7 0 0
BITMAP
30
58
c8
c0
c0
e8
70
ENDCHAR
STARTCHAR d
ENCODING 100
SWIDTH 556 0
DWIDTH 7 0
BBX 7 10 0 0
BITMAP
1c
0c
0c
7c
cc
cc
cc
cc
cc
76
ENDCHAR
STARTCHAR e
ENCODING 101
SWIDTH 444 0
DWIDTH 6 0
BBX 6 7 0 0
BITMAP
38
4c
cc
fc
c0
e4
78
ENDCHAR
STARTCHAR f
ENCODING 102
SWIDTH 333 0
DWIDTH 5 0
BBX 5 10 0 0
BITMAP
38
68
60
f0
60
60
60
60
60
f0
ENDCHAR
STARTCHAR g
ENCODING 103
SWIDTH 500 0
DWIDTH 7 0
BBX 7 10 0 -3
BITMAP
7e
cc
cc
cc
78
40
7c
fe
82
7c
ENDCHAR
STARTCHAR h
ENCODING 104
SWIDTH 556 0
DWIDTH 8 0
BBX 8 10 0 0
BITMAP
e0
60
60
6c
76
66
66
66
66
e7
ENDCHAR
STARTCHAR i
ENCODING 105
SWIDTH 278 0
DWIDTH 4 0
BBX 4 10 0 0
BITMAP
60
60
00
e0
60
60
60
60
60
f0
ENDCHAR
STARTCHAR j
ENCODING 106
SWIDTH 333 0
DWIDTH 4 0
BBX 4 13 -1 -3
BITMAP
30
30
00
70
30
30
30
30
30
30
30
b0
e0
ENDCHAR
STARTCHAR k
ENCODING 107
SWIDTH 556 0
DWIDTH 8 0
BBX 8 10 0 0
BITMAP
e0
60
60
6e
64
68
78
6c
66
e7
ENDCHAR
STARTCHAR l
ENCODING 108
SWIDTH 278 0
DWIDTH 4 0
BBX 4 10 0 0
BITMAP
e0
60
60
60
60
60
60
60
60
f0
ENDCHAR
STARTCHAR m
ENCODING 109
SWIDTH 833 0
DWIDTH 12 0
BBX 12 7 0 0
BITMAP
ecc0
7760
6660
6660
6660
6660
f770
ENDCHAR
STARTCHAR n
ENCODING 110
SWIDTH 556 0
DWIDTH 8 0
BBX 8 7 0 0
BITMAP
ec
76
66
66
66
66
e7
ENDCHAR
STARTCHAR o
ENCODING 111
SWIDTH 500 0
DWIDTH 7 0
BBX 6 7 0 0
BITMAP
78
cc
cc
cc
cc
cc
78
ENDCHAR
STARTCHAR p
ENCODING 112
SWIDTH 556 0
DWIDTH 8 0
BBX 7 10 0 -3
BITMAP
ec
76
66
66
66
66
7c
60
60
f0
ENDCHAR
STARTCHAR q
ENCODING 113
SWIDTH 556 0
DWIDTH 7 0
BBX 7 10 0 -3
BITMAP
6c
dc
cc
cc
cc
cc
7c
0c
0c
1e
ENDCHAR
STARTCHAR r
ENCODING 114
SWIDTH 444 0
DWIDTH 6 0
BBX 6 7 0 0
BITMAP
dc
6c
60
60
60
60
f0
ENDCHAR
STARTCHAR s
ENCODING 115
SWIDTH 389 0
DWIDTH 6 0
BBX 5 7 0 0
BITMAP
78
c8
e0
70
38
98
f0
ENDCHAR
STARTCHAR t
ENCODING 116
SWIDTH 333 0
DWIDTH 5 0
BBX 5 9 0 0
BITMAP
20
60
f0
60
60
60
68
70
30
ENDCHAR
STARTCHAR u
ENCODING 117
SWIDTH 556 0
DWIDTH 7 0
BBX 8 7 -1 0
BITMAP
ee
66
66
66
66
66
3b
ENDCHAR
STARTCHAR v
ENCODING 118
SWIDTH 500 0
DWIDTH 7 0
BBX 8 7 -1 0
BITMAP
f7
62
62
34
34
18
18
ENDCHAR
STARTCHAR w
ENCODING 119
SWIDTH 722 0
DWIDTH 10 0
BBX 10 7 0 0
BITMAP
eec0
6480
7680
3700
3b00
3b00
1200
ENDCHAR
STARTCHAR x
ENCODING 120
SWIDTH 500 0
DWIDTH 7 0
BBX 7 7 0 0
BITMAP
ee
6c
38
38
38
6c
ee
ENDCHAR
STARTCHAR y
ENCODING 121
SWIDTH 500 0
DWIDTH 7 0
BBX 8 10 -1 -3
BITMAP
f7
62
32
34
1c
1c
08
08
38
30
ENDCHAR
STARTCHAR z
ENCODING 122
SWIDTH 444 0
DWIDTH 6 0
BBX 6 7 0 0
BITMAP
fc
9c
18
30
64
e4
fc
ENDCHAR
STARTCHAR braceleft
ENCODING 123
SWIDTH 394 0
DWIDTH 7 0
BBX 5 13 1 -3
BITMAP
18
30
30
30
30
60
c0
60
30
30
30
30
18
ENDCHAR
STARTCHAR bar
ENCODING 124
SWIDTH 220 0
DWIDTH 3 0
BBX 1 12 1 -2
BITMAP
80
80
80
80
80
80
80
80
80
80
80
80
ENDCHAR
STARTCHAR braceright
ENCODING 125
SWIDTH 394 0
DWIDTH 7 0
BBX 5 13 0 -3
BITMAP
c0
60
60
60
60
30
18
30
60
60
60
60
c0
ENDCHAR
STARTCHAR asciitilde
ENCODING 126
SWIDTH 520 0
DWIDTH 8 0
BBX 7 4 0 3
BITMAP
60
f2
9e
0c
ENDCHAR
STARTCHAR nobreakspace
ENCODING 160
SWIDTH 250 0
DWIDTH 3 0
BBX 1 1 0 0
BITMAP
00
ENDCHAR
STARTCHAR Aogonek
ENCODING 161
SWIDTH 722 0
DWIDTH 10 0
BBX 10 13 0 -3
BITMAP
0c00
0c00
1e00
1600
3300
2300
3f00
6180
4180
e3c0
1000
1400
0c00
ENDCHAR
STARTCHAR breve
ENCODING 162
SWIDTH 333 0
DWIDTH 5 0
BBX 5 2 0 8
BITMAP
88
70
ENDCHAR
STARTCHAR Lstroke
ENCODING 163
SWIDTH 667 0
DWIDTH 9 0
BBX 8 10 0 0
BITMAP
f0
60
60
68
70
e0
61
61
63
ff
ENDCHAR
STARTCHAR currency
ENCODING 164
SWIDTH 500 0
DWIDTH 8 0
BBX 7 6 0 2
BITMAP
38
ee
44
44
ee
38
ENDCHAR
STARTCHAR Lcaron
ENCODING 165
SWIDTH 667 0
DWIDTH 9 0
BBX 8 11 0 0
BITMAP
06
f6
62
64
60
60
60
61
61
63
ff
ENDCHAR
STARTCHAR Sacute
ENCODING 166
SWIDTH 556 0
DWIDTH 8 0
BBX 7 14 0 0
BITMAP
04
0c
10
00
7a
c6
c2
e0
78
1c
0e
86
c6
fc
ENDCHAR
STARTCHAR section
ENCODING 167
SWIDTH 500 0
DWIDTH 7 0
BBX 5 12 1 -2
BITMAP
70
d8
c8
60
f0
98
c8
78
30
98
d8
70
ENDCHAR
STARTCHAR diaeresis
ENCODING 168
SWIDTH 333 0
DWIDTH 5 0
BBX 3 2 1 8
BITMAP
a0
a0
ENDCHAR
STARTCHAR Scaron
ENCODING 169
SWIDTH 556 0
DWIDTH 8 0
BBX 7 14 0 0
BITMAP
44
38
10
00
7a
c6
c2
e0
78
1c
0e
86
c6
fc
ENDCHAR
STARTCHAR Scedilla
ENCODING 170
SWIDTH 556 0
DWIDTH 8 0
BBX 7 13 0 -3
BITMAP
7a
c6
c2
e0
78
1c
0e
86
c6
fc
10
08
38
ENDCHAR
STARTCHAR Tcaron
ENCODING 171
SWIDTH 667 0
DWIDTH 9 0
BBX 8 14 0 0
BITMAP
44
38
10
00
ff
db
99
18
18
18
18
18
18
3c
ENDCHAR
STARTCHAR Zacute
ENCODING 172
SWIDTH 667 0
DWIDTH 9 0
BBX 8 14 0 0
BITMAP
04
0c
10
00
ff
c7
86
8c
18
18
31
61
e3
ff
ENDCHAR
STARTCHAR hyphen
ENCODING 173
SWIDTH 333 0
DWIDTH 4 0
BBX 3 1 0 3
BITMAP
e0
ENDCHAR
STARTCHAR Zcaron
ENCODING 174
SWIDTH 667 0
DWIDTH 9 0
BBX 8 14 0 0
BITMAP
44
38
10
00
ff
c7
86
8c
18
18
31
61
e3
ff
ENDCHAR
STARTCHAR Zabovedot
ENCODING 175
SWIDTH 667 0
DWIDTH 9 0
BBX 8 13 0 0
BITMAP
10
10
00
ff
c7
86
8c
18
18
31
61
e3
ff
ENDCHAR
STARTCHAR degree
ENCODING 176
SWIDTH 400 0
DWIDTH 6 0
BBX 4 4 1 6
BITMAP
60
90
90
60
ENDCHAR
STARTCHAR aogonek
ENCODING 177
SWIDTH 500 0
DWIDTH 7 0
BBX 7 10 0 -3
BITMAP
78
cc
0c
7c
cc
cc
76
20
28
18
ENDCHAR
STARTCHAR ogonek
ENCODING 178
SWIDTH 333 0
DWIDTH 5 0
BBX 3 3 1 -3
BITMAP
80
a0
60
ENDCHAR
STARTCHAR lstroke
ENCODING 179
SWIDTH 278 0
DWIDTH 4 0
BBX 4 10 0 0
BITMAP
e0
60
60
70
60
e0
60
60
60
f0
ENDCHAR
STARTCHAR acute
ENCODING 180
SWIDTH 333 0
DWIDTH 5 0
BBX 3 3 1 8
BITMAP
20
60
80
ENDCHAR
STARTCHAR lcaron
ENCODING 181
SWIDTH 432 0
DWIDTH 6 0
BBX 6 11 0 0
BITMAP
0c
ec
64
68
60
60
60
60
60
60
f0
ENDCHAR
STARTCHAR sacute
ENCODING 182
SWIDTH 389 0
DWIDTH 6 0
BBX 5 11 0 0
BITMAP
08
18
20
00
78
c8
e0
70
38
98
f0
ENDCHAR
STARTCHAR caron
ENCODING 183
SWIDTH 333 0
DWIDTH 5 0
BBX 5 3 0 8
BITMAP
88
70
20
ENDCHAR
STARTCHAR cedilla
ENCODING 184
SWIDTH 333 0
DWIDTH 5 0
BBX 3 3 1 -3
BITMAP
40
20
e0
ENDCHAR
STARTCHAR scaron
ENCODING 185
SWIDTH 389 0
DWIDTH 6 0
BBX 5 11 0 0
BITMAP
88
70
20
00
78
c8
e0
70
38
98
f0
ENDCHAR
STARTCHAR scedilla
ENCODING 186
SWIDTH 389 0
DWIDTH 6 0
BBX 5 10 0 -3
BITMAP
78
c8
e0
70
38
98
f0
20
10
70
ENDCHAR
STARTCHAR tcaron
ENCODING 187
SWIDTH 432 0
DWIDTH 6 0
BBX 6 12 0 0
BITMAP
0c
0c
04
28
60
f0
60
60
60
68
70
30
ENDCHAR
STARTCHAR zacute
ENCODING 188
SWIDTH 444 0
DWIDTH 6 0
BBX 6 11 0 0
BITMAP
08
18
20
00
fc
9c
18
30
64
e4
fc
ENDCHAR
STARTCHAR doubleacute
ENCODING 189
SWIDTH 333 0
DWIDTH 5 0
BBX 6 3 -1 8
BITMAP
24
6c
90
ENDCHAR
STARTCHAR zcaron
ENCODING 190
SWIDTH 444 0
DWIDTH 6 0
BBX 6 11 0 0
BITMAP
88
70
20
00
fc
9c
18
30
64
e4
fc
ENDCHAR
STARTCHAR zabovedot
ENCODING 191
SWIDTH 444 0
DWIDTH 6 0
BBX 6 10 0 0
BITMAP
20
20
00
fc
9c
18
30
64
e4
fc
ENDCHAR
STARTCHAR Racute
ENCODING 192
SWIDTH 722 0
DWIDTH 10 0
BBX 10 14 0 0
BITMAP
0400
0c00
1000
0000
fe00
6700
6300
6300
6600
7c00
6e00
6700
6380
f1c0
ENDCHAR
STARTCHAR Aacute
ENCODING 193
SWIDTH 722 0
DWIDTH 10 0
BBX 10 14 0 0
BITMAP
0200
0600
0800
0000
0c00
0c00
1e00
1600
3300
2300
3f00
6180
4180
e3c0
ENDCHAR
STARTCHAR Acircumflex
ENCODING 194
SWIDTH 722 0
DWIDTH 10 0
BBX 10 14 0 0
BITMAP
0800
1c00
2200
0000
0c00
0c00
1e00
1600
3300
2300
3f00
6180
4180
e3c0
ENDCHAR
STARTCHAR Abreve
ENCODING 195
SWIDTH 722 0
DWIDTH 10 0
BBX 10 13 0 0
BITMAP
2200
1c00
0000
0c00
0c00
1e00
1600
3300
2300
3f00
6180
4180
e3c0
ENDCHAR
STARTCHAR Adiaeresis
ENCODING 196
SWIDTH 722 0
DWIDTH 10 0
BBX 10 13 0 0
BITMAP
1200
1200
0000
0c00
0c00
1e00
1600
3300
2300
3f00
6180
4180
e3c0
ENDCHAR
STARTCHAR Lacute
ENCODING 197
SWIDTH 667 0
DWIDTH 9 0
BBX 8 14 0 0
BITMAP
10
30
40
00
f0
60
60
60
60
60
61
61
63
ff
ENDCHAR
STARTCHAR Cacute
ENCODING 198
SWIDTH 722 0
DWIDTH 10 0
BBX 8 14 1 0
BITMAP
02
06
08
00
3d
63
c1
c1
c0
c0
c0
c1
63
3e
ENDCHAR
STARTCHAR Ccedilla
ENCODING 199
SWIDTH 722 0
DWIDTH 10 0
BBX 8 13 1 -3
BITMAP
3d
63
c1
c1
c0
c0
c0
c1
63
3e
10
08
38
ENDCHAR
STARTCHAR Ccaron
ENCODING 200
SWIDTH 722 0
DWIDTH 10 0
BBX 8 14 1 0
BITMAP
22
1c
08
00
3d
63
c1
c1
c0
c0
c0
c1
63
3e
ENDCHAR
STARTCHAR Eacute
ENCODING 201
SWIDTH 667 0
DWIDTH 9 0
BBX 8 14 0 0
BITMAP
04
0c
10
00
ff
63
61
64
7c
64
65
61
63
ff
ENDCHAR
STARTCHAR Eogonek
ENCODING 202
SWIDTH 667 0
DWIDTH 9 0
BBX 8 13 0 -3
BITMAP
ff
63
61
64
7c
64
60
61
63
ff
20
28
18
ENDCHAR
STARTCHAR Ediaeresis
ENCODING 203
SWIDTH 667 0
DWIDTH 9 0
BBX 8 13 0 0
BITMAP
24
24
00
ff
63
61
64
7c
64
65
61
63
ff
ENDCHAR
STARTCHAR Ecaron
ENCODING 204
SWIDTH 667 0
DWIDTH 9 0
BBX 8 14 0 0
BITMAP
44
38
10
00
ff
63
61
64
7c
64
60
61
63
ff
ENDCHAR
STARTCHAR Iacute
ENCODING 205
SWIDTH 389 0
DWIDTH 5 0
BBX 4 14 0 0
BITMAP
10
30
40
00
f0
60
60
60
60
60
60
60
60
f0
ENDCHAR
STARTCHAR Icircumflex
ENCODING 206
SWIDTH 389 0
DWIDTH 5 0
BBX 5 14 0 0
BITMAP
20
70
88
00
f0
60
60
60
60
60
60
60
60
f0
ENDCHAR
STARTCHAR Dcaron
ENCODING 207
SWIDTH 722 0
DWIDTH 10 0
BBX 9 14 0 0
BITMAP
4400
3800
1000
0000
fe00
6300
6180
6180
6180
6180
6180
6180
6300
fe00
ENDCHAR
STARTCHAR Dstroke
ENCODING 208
SWIDTH 722 0
DWIDTH 11 0
BBX 9 10 1 0
BITMAP
fe00
6300
6180
6180
f180
6180
6180
6180
6300
fe00
ENDCHAR
STARTCHAR Nacute
ENCODING 209
SWIDTH 722 0
DWIDTH 10 0
BBX 10 14 0 0
BITMAP
0200
0600
0800
0000
e1c0
7080
7080
5880
4c80
4c80
4680
4380
4380
e180
ENDCHAR
STARTCHAR Ncaron
ENCODING 210
SWIDTH 722 0
DWIDTH 10 0
BBX 10 14 0 0
BITMAP
2200
1c00
0800
0000
e1c0
7080
7080
5880
4c80
4c80
4680
4380
4380
e180
ENDCHAR
STARTCHAR Oacute
ENCODING 211
SWIDTH 778 0
DWIDTH 11 0
BBX 9 14 1 0
BITMAP
0400
0c00
1000
0000
3e00
6300
c180
c180
c180
c180
c180
c180
6300
3e00
ENDCHAR
STARTCHAR Ocircumflex
ENCODING 212
SWIDTH 778 0
DWIDTH 11 0
BBX 9 14 1 0
BITMAP
0800
1c00
2200
0000
3e00
6300
c180
c180
c180
c180
c180
c180
6300
3e00
ENDCHAR
STARTCHAR Odoubleacute
ENCODING 213
SWIDTH 778 0
DWIDTH 11 0
BBX 9 14 1 0
BITMAP
0480
0d80
1200
0000
3e00
6300
c180
c180
c180
c180
c180
c180
6300
3e00
ENDCHAR
STARTCHAR Odiaeresis
ENCODING 214
SWIDTH 778 0
DWIDTH 11 0
BBX 9 13 1 0
BITMAP
2200
2200
0000
3e00
6300
c180
c180
c180
c180
c180
c180
6300
3e00
ENDCHAR
STARTCHAR multiply
ENCODING 215
SWIDTH 570 0
DWIDTH 8 0
BBX 8 7 0 0
BITMAP
c3
66
3c
18
3c
66
c3
ENDCHAR
STARTCHAR Rcaron
ENCODING 216
SWIDTH 722 0
DWIDTH 10 0
BBX 10 14 0 0
BITMAP
4400
3800
1000
0000
fe00
6700
6300
6300
6600
7c00
6e00
6700
6380
f1c0
ENDCHAR
STARTCHAR Uring
ENCODING 217
SWIDTH 722 0
DWIDTH 10 0
BBX 9 14 0 0
BITMAP
0c00
1200
0c00
0000
f380
6100
6100
6100
6100
6100
6100
6100
7300
3e00
ENDCHAR
STARTCHAR Uacute
ENCODING 218
SWIDTH 722 0
DWIDTH 10 0
BBX 9 14 0 0
BITMAP
0400
0c00
1000
0000
f380
6100
6100
6100
6100
6100
6100
6100
7300
3e00
ENDCHAR
STARTCHAR Udoubleacute
ENCODING 219
SWIDTH 722 0
DWIDTH 10 0
BBX 9 14 0 0
BITMAP
0480
0d80
1200
0000
f380
6100
6100
6100
6100
6100
6100
6100
7300
3e00
ENDCHAR
STARTCHAR Udiaeresis
ENCODING 220
SWIDTH 722 0
DWIDTH 10 0
BBX 9 13 0 0
BITMAP
1200
1200
0000
f380
6100
6100
6100
6100
6100
6100
6100
7300
3e00
ENDCHAR
STARTCHAR Yacute
ENCODING 221
SWIDTH 722 0
DWIDTH 10 0
BBX 10 14 0 0
BITMAP
0100
0300
0400
0000
f9c0
7080
3100
3900
1a00
1e00
0c00
0c00
0c00
1e00
ENDCHAR
STARTCHAR Tcedilla
ENCODING 222
SWIDTH 667 0
DWIDTH 9 0
BBX 8 13 0 -3
BITMAP
ff
db
99
18
18
18
18
18
18
3c
10
08
38
ENDCHAR
STARTCHAR ssharp
ENCODING 223
SWIDTH 556 0
DWIDTH 8 0
BBX 7 10 0 0
BITMAP
38
6c
64
6c
78
6c
66
66
66
ec
ENDCHAR
STARTCHAR racute
ENCODING 224
SWIDTH 444 0
DWIDTH 6 0
BBX 6 11 0 0
BITMAP
08
18
20
00
dc
6c
60
60
60
60
f0
ENDCHAR
STARTCHAR aacute
ENCODING 225
SWIDTH 500 0
DWIDTH 7 0
BBX 7 11 0 0
BITMAP
08
18
20
00
78
cc
0c
7c
cc
cc
76
ENDCHAR
STARTCHAR acircumflex
ENCODING 226
SWIDTH 500 0
DWIDTH 7 0
BBX 7 11 0 0
BITMAP
10
38
44
00
78
cc
0c
7c
cc
cc
76
ENDCHAR
STARTCHAR abreve
ENCODING 227
SWIDTH 500 0
DWIDTH 7 0
BBX 7 10 0 0
BITMAP
88
70
00
78
cc
0c
7c
cc
cc
76
ENDCHAR
STARTCHAR adiaeresis
ENCODING 228
SWIDTH 500 0
DWIDTH 7 0
BBX 7 10 0 0
BITMAP
28
28
00
78
cc
0c
7c
cc
cc
76
ENDCHAR
STARTCHAR lacute
ENCODING 229
SWIDTH 278 0
DWIDTH 4 0
BBX 4 14 0 0
BITMAP
10
30
40
00
e0
60
60
60
60
60
60
60
60
f0
ENDCHAR
STARTCHAR cacute
ENCODING 230
SWIDTH 444 0
DWIDTH 6 0
BBX 5 11 0 0
BITMAP
08
18
20
00
30
58
c8
c0
c0
e8
70
ENDCHAR
STARTCHAR ccedilla
ENCODING 231
SWIDTH 444 0
DWIDTH 7 0
BBX 6 10 0 -3
BITMAP
38
4c
cc
c0
c0
e4
78
20
10
70
ENDCHAR
STARTCHAR ccaron
ENCODING 232
SWIDTH 444 0
DWIDTH 6 0
BBX 5 11 0 0
BITMAP
88
70
20
00
30
58
c8
c0
c0
e8
70
ENDCHAR
STARTCHAR eacute
ENCODING 233
SWIDTH 444 0
DWIDTH 7 0
BBX 6 11 0 0
BITMAP
08
18
20
00
38
4c
cc
fc
c0
e4
78
ENDCHAR
STARTCHAR eogonek
ENCODING 234
SWIDTH 444 0
DWIDTH 6 0
BBX 6 10 0 -3
BITMAP
38
4c
cc
fc
c0
e4
78
40
50
30
ENDCHAR
STARTCHAR ediaeresis
ENCODING 235
SWIDTH 444 0
DWIDTH 7 0
BBX 6 10 0 0
BITMAP
50
50
00
38
4c
cc
fc
c0
e4
78
ENDCHAR
STARTCHAR ecaron
ENCODING 236
SWIDTH 444 0
DWIDTH 6 0
BBX 6 11 0 0
BITMAP
44
38
10
00
38
4c
cc
fc
c0
e4
78
ENDCHAR
STARTCHAR iacute
ENCODING 237
SWIDTH 278 0
DWIDTH 4 0
BBX 4 11 0 0
BITMAP
20
60
80
00
e0
60
60
60
60
60
f0
ENDCHAR
STARTCHAR icircumflex
ENCODING 238
SWIDTH 278 0
DWIDTH 4 0
BBX 5 11 0 0
BITMAP
20
70
88
00
e0
60
60
60
60
60
f0
ENDCHAR
STARTCHAR dcaron
ENCODING 239
SWIDTH 648 0
DWIDTH 9 0
BBX 9 11 0 0
BITMAP
0180
1d80
0c80
0d00
7c00
cc00
cc00
cc00
cc00
cc00
7600
ENDCHAR
STARTCHAR dstroke
ENCODING 240
SWIDTH 576 0
DWIDTH 8 0
BBX 8 10 0 0
BITMAP
0c
3f
0c
7c
cc
cc
cc
cc
cc
76
ENDCHAR
STARTCHAR nacute
ENCODING 241
SWIDTH 556 0
DWIDTH 8 0
BBX 8 11 0 0
BITMAP
04
0c
10
00
ec
76
66
66
66
66
e7
ENDCHAR
STARTCHAR ncaron
ENCODING 242
SWIDTH 556 0
DWIDTH 8 0
BBX 8 11 0 0
BITMAP
44
38
10
00
ec
76
66
66
66
66
e7
ENDCHAR
STARTCHAR oacute
ENCODING 243
SWIDTH 500 0
DWIDTH 7 0
BBX 6 11 0 0
BITMAP
08
18
20
00
78
cc
cc
cc
cc
cc
78
ENDCHAR
STARTCHAR ocircumflex
ENCODING 244
SWIDTH 500 0
DWIDTH 7 0
BBX 6 11 0 0
BITMAP
20
70
88
00
78
cc
cc
cc
cc
cc
78
ENDCHAR
STARTCHAR odoubleacute
ENCODING 245
SWIDTH 500 0
DWIDTH 7 0
BBX 7 11 0 0
BITMAP
12
36
48
00
78
cc
cc
cc
cc
cc
78
ENDCHAR
STARTCHAR odiaeresis
ENCODING 246
SWIDTH 500 0
DWIDTH 7 0
BBX 6 10 0 0
BITMAP
50
50
00
78
cc
cc
cc
cc
cc
78
ENDCHAR
STARTCHAR division
ENCODING 247
SWIDTH 570 0
DWIDTH 8 0
BBX 6 7 0 0
BITMAP
30
30
00
fc
00
30
30
ENDCHAR
STARTCHAR rcaron
ENCODING 248
SWIDTH 444 0
DWIDTH 6 0
BBX 6 11 0 0
BITMAP
88
70
20
00
dc
6c
60
60
60
60
f0
ENDCHAR
STARTCHAR uring
ENCODING 249
SWIDTH 556 0
DWIDTH 7 0
BBX 8 11 -1 0
BITMAP
18
24
18
00
ee
66
66
66
66
66
3b
ENDCHAR
STARTCHAR uacute
ENCODING 250
SWIDTH 556 0
DWIDTH 7 0
BBX 8 11 -1 0
BITMAP
04
0c
10
00
ee
66
66
66
66
66
3b
ENDCHAR
STARTCHAR udoubleacute
ENCODING 251
SWIDTH 556 0
DWIDTH 7 0
BBX 8 11 -1 0
BITMAP
09
1b
24
00
ee
66
66
66
66
66
3b
ENDCHAR
STARTCHAR udiaeresis
ENCODING 252
SWIDTH 556 0
DWIDTH 7 0
BBX 8 10 -1 0
BITMAP
28
28
00
ee
66
66
66
66
66
3b
ENDCHAR
STARTCHAR yacute
ENCODING 253
SWIDTH 500 0
DWIDTH 7 0
BBX 8 14 -1 -3
BITMAP
02
06
08
00
f7
62
32
34
1c
1c
08
08
38
30
ENDCHAR
STARTCHAR tcedilla
ENCODING 254
SWIDTH 333 0
DWIDTH 5 0
BBX 5 12 0 -3
BITMAP
20
60
f0
60
60
60
68
70
30
20
10
70
ENDCHAR
STARTCHAR abovedot
ENCODING 255
SWIDTH 333 0
DWIDTH 5 0
BBX 1 2 2 8
BITMAP
80
80
ENDCHAR
ENDFONT
